%TF.GenerationSoftware,KiCad,Pcbnew,8.0.7*%
%TF.CreationDate,2025-01-01T23:02:30-05:00*%
%TF.ProjectId,PCB_Capstone_prototype_1_optical_S,5043425f-4361-4707-9374-6f6e655f7072,rev?*%
%TF.SameCoordinates,Original*%
%TF.FileFunction,Copper,L2,Bot*%
%TF.FilePolarity,Positive*%
%FSLAX46Y46*%
G04 Gerber Fmt 4.6, Leading zero omitted, Abs format (unit mm)*
G04 Created by KiCad (PCBNEW 8.0.7) date 2025-01-01 23:02:30*
%MOMM*%
%LPD*%
G01*
G04 APERTURE LIST*
%TA.AperFunction,ComponentPad*%
%ADD10R,0.850000X0.850000*%
%TD*%
%TA.AperFunction,ComponentPad*%
%ADD11O,0.850000X0.850000*%
%TD*%
%TA.AperFunction,ViaPad*%
%ADD12C,0.600000*%
%TD*%
%TA.AperFunction,Conductor*%
%ADD13C,0.200000*%
%TD*%
G04 APERTURE END LIST*
D10*
%TO.P,J1,1,Pin_1*%
%TO.N,Net-(J1-Pin_1)*%
X115000000Y-52000000D03*
D11*
%TO.P,J1,2,Pin_2*%
X115000000Y-53000000D03*
%TO.P,J1,3,Pin_3*%
%TO.N,Net-(J1-Pin_3)*%
X115000000Y-54000000D03*
%TO.P,J1,4,Pin_4*%
%TO.N,Net-(J1-Pin_4)*%
X115000000Y-55000000D03*
%TO.P,J1,5,Pin_5*%
%TO.N,Net-(J1-Pin_5)*%
X115000000Y-56000000D03*
%TO.P,J1,6,Pin_6*%
%TO.N,Net-(J1-Pin_6)*%
X115000000Y-57000000D03*
%TO.P,J1,7,Pin_7*%
%TO.N,Net-(J1-Pin_7)*%
X115000000Y-58000000D03*
%TO.P,J1,8,Pin_8*%
%TO.N,Net-(J1-Pin_8)*%
X115000000Y-59000000D03*
%TO.P,J1,9,Pin_9*%
%TO.N,GND*%
X115000000Y-60000000D03*
%TD*%
D12*
%TO.N,GND*%
X95500000Y-55000000D03*
X98500000Y-56000000D03*
X112900000Y-60400000D03*
X102500000Y-59500000D03*
X104500000Y-56500000D03*
X90049999Y-55450001D03*
X88000000Y-58000000D03*
X96500000Y-60000000D03*
X100500000Y-60500000D03*
%TO.N,Net-(U1-VDDA)*%
X99900000Y-55000000D03*
X101100000Y-55000000D03*
%TD*%
D13*
%TO.N,Net-(U1-VDDA)*%
X101100000Y-55000000D02*
X99900000Y-55000000D01*
%TD*%
%TA.AperFunction,Conductor*%
%TO.N,GND*%
G36*
X117443039Y-49019685D02*
G01*
X117488794Y-49072489D01*
X117500000Y-49124000D01*
X117500000Y-63376000D01*
X117480315Y-63443039D01*
X117427511Y-63488794D01*
X117376000Y-63500000D01*
X85124000Y-63500000D01*
X85056961Y-63480315D01*
X85011206Y-63427511D01*
X85000000Y-63376000D01*
X85000000Y-60250000D01*
X114108628Y-60250000D01*
X114150316Y-60378306D01*
X114150317Y-60378307D01*
X114247536Y-60546694D01*
X114247535Y-60546694D01*
X114377639Y-60691190D01*
X114377642Y-60691192D01*
X114534950Y-60805484D01*
X114712587Y-60884573D01*
X114749999Y-60892524D01*
X114750000Y-60892524D01*
X115250000Y-60892524D01*
X115287412Y-60884573D01*
X115465049Y-60805484D01*
X115622357Y-60691192D01*
X115622360Y-60691190D01*
X115752463Y-60546694D01*
X115849682Y-60378307D01*
X115849683Y-60378306D01*
X115891372Y-60250000D01*
X115250000Y-60250000D01*
X115250000Y-60892524D01*
X114750000Y-60892524D01*
X114750000Y-60250000D01*
X114108628Y-60250000D01*
X85000000Y-60250000D01*
X85000000Y-54999996D01*
X99094435Y-54999996D01*
X99094435Y-55000003D01*
X99114630Y-55179249D01*
X99114631Y-55179254D01*
X99174211Y-55349523D01*
X99192424Y-55378508D01*
X99270184Y-55502262D01*
X99397738Y-55629816D01*
X99550478Y-55725789D01*
X99720745Y-55785368D01*
X99720750Y-55785369D01*
X99899996Y-55805565D01*
X99900000Y-55805565D01*
X99900004Y-55805565D01*
X100079249Y-55785369D01*
X100079252Y-55785368D01*
X100079255Y-55785368D01*
X100249522Y-55725789D01*
X100402262Y-55629816D01*
X100402267Y-55629810D01*
X100405097Y-55627555D01*
X100407275Y-55626665D01*
X100408158Y-55626111D01*
X100408255Y-55626265D01*
X100469783Y-55601145D01*
X100482412Y-55600500D01*
X100517588Y-55600500D01*
X100584627Y-55620185D01*
X100594903Y-55627555D01*
X100597736Y-55629814D01*
X100597738Y-55629816D01*
X100750478Y-55725789D01*
X100920745Y-55785368D01*
X100920750Y-55785369D01*
X101099996Y-55805565D01*
X101100000Y-55805565D01*
X101100004Y-55805565D01*
X101279249Y-55785369D01*
X101279252Y-55785368D01*
X101279255Y-55785368D01*
X101449522Y-55725789D01*
X101602262Y-55629816D01*
X101729816Y-55502262D01*
X101825789Y-55349522D01*
X101885368Y-55179255D01*
X101905565Y-55000000D01*
X101885368Y-54820745D01*
X101825789Y-54650478D01*
X101729816Y-54497738D01*
X101602262Y-54370184D01*
X101449523Y-54274211D01*
X101279254Y-54214631D01*
X101279249Y-54214630D01*
X101100004Y-54194435D01*
X101099996Y-54194435D01*
X100920750Y-54214630D01*
X100920745Y-54214631D01*
X100750476Y-54274211D01*
X100597736Y-54370185D01*
X100594903Y-54372445D01*
X100592724Y-54373334D01*
X100591842Y-54373889D01*
X100591744Y-54373734D01*
X100530217Y-54398855D01*
X100517588Y-54399500D01*
X100482412Y-54399500D01*
X100415373Y-54379815D01*
X100405097Y-54372445D01*
X100402263Y-54370185D01*
X100402262Y-54370184D01*
X100345496Y-54334515D01*
X100249523Y-54274211D01*
X100079254Y-54214631D01*
X100079249Y-54214630D01*
X99900004Y-54194435D01*
X99899996Y-54194435D01*
X99720750Y-54214630D01*
X99720745Y-54214631D01*
X99550476Y-54274211D01*
X99397737Y-54370184D01*
X99270184Y-54497737D01*
X99174211Y-54650476D01*
X99114631Y-54820745D01*
X99114630Y-54820750D01*
X99094435Y-54999996D01*
X85000000Y-54999996D01*
X85000000Y-53000000D01*
X114069402Y-53000000D01*
X114089738Y-53193483D01*
X114149856Y-53378510D01*
X114149857Y-53378511D01*
X114184203Y-53438000D01*
X114200676Y-53505900D01*
X114184203Y-53562000D01*
X114149857Y-53621488D01*
X114149856Y-53621489D01*
X114089738Y-53806516D01*
X114069402Y-54000000D01*
X114089738Y-54193483D01*
X114149856Y-54378510D01*
X114149857Y-54378511D01*
X114184203Y-54438000D01*
X114200676Y-54505900D01*
X114184203Y-54562000D01*
X114149857Y-54621488D01*
X114149856Y-54621489D01*
X114089738Y-54806516D01*
X114069402Y-55000000D01*
X114089738Y-55193483D01*
X114149856Y-55378510D01*
X114149857Y-55378511D01*
X114184203Y-55438000D01*
X114200676Y-55505900D01*
X114184203Y-55562000D01*
X114149857Y-55621488D01*
X114149856Y-55621489D01*
X114089738Y-55806516D01*
X114069402Y-56000000D01*
X114089738Y-56193483D01*
X114149856Y-56378510D01*
X114149857Y-56378511D01*
X114184203Y-56438000D01*
X114200676Y-56505900D01*
X114184203Y-56562000D01*
X114149857Y-56621488D01*
X114149856Y-56621489D01*
X114089738Y-56806516D01*
X114069402Y-57000000D01*
X114089738Y-57193483D01*
X114149856Y-57378510D01*
X114149857Y-57378511D01*
X114184203Y-57438000D01*
X114200676Y-57505900D01*
X114184203Y-57562000D01*
X114149857Y-57621488D01*
X114149856Y-57621489D01*
X114089738Y-57806516D01*
X114069402Y-58000000D01*
X114089738Y-58193483D01*
X114149856Y-58378510D01*
X114149857Y-58378511D01*
X114184203Y-58438000D01*
X114200676Y-58505900D01*
X114184203Y-58562000D01*
X114149857Y-58621488D01*
X114149856Y-58621489D01*
X114089738Y-58806516D01*
X114069402Y-59000000D01*
X114089738Y-59193483D01*
X114149856Y-59378510D01*
X114149857Y-59378511D01*
X114184492Y-59438500D01*
X114200965Y-59506400D01*
X114184492Y-59562500D01*
X114150317Y-59621692D01*
X114150316Y-59621693D01*
X114108628Y-59749999D01*
X114108628Y-59750000D01*
X114417441Y-59750000D01*
X114484480Y-59769685D01*
X114490327Y-59773682D01*
X114534702Y-59805923D01*
X114602926Y-59836297D01*
X114712429Y-59885051D01*
X114771788Y-59897668D01*
X114750000Y-59950272D01*
X114750000Y-60049728D01*
X114788060Y-60141614D01*
X114858386Y-60211940D01*
X114950272Y-60250000D01*
X115049728Y-60250000D01*
X115141614Y-60211940D01*
X115211940Y-60141614D01*
X115250000Y-60049728D01*
X115250000Y-59950272D01*
X115228211Y-59897668D01*
X115287571Y-59885051D01*
X115465299Y-59805922D01*
X115509673Y-59773681D01*
X115575480Y-59750202D01*
X115582559Y-59750000D01*
X115891372Y-59750000D01*
X115891371Y-59749999D01*
X115849684Y-59621697D01*
X115815507Y-59562500D01*
X115799034Y-59494600D01*
X115815506Y-59438502D01*
X115850144Y-59378508D01*
X115910262Y-59193482D01*
X115930598Y-59000000D01*
X115910262Y-58806518D01*
X115850144Y-58621492D01*
X115815795Y-58561999D01*
X115799322Y-58494101D01*
X115815796Y-58438000D01*
X115850144Y-58378508D01*
X115910262Y-58193482D01*
X115930598Y-58000000D01*
X115910262Y-57806518D01*
X115850144Y-57621492D01*
X115815795Y-57561999D01*
X115799322Y-57494101D01*
X115815796Y-57438000D01*
X115850144Y-57378508D01*
X115910262Y-57193482D01*
X115930598Y-57000000D01*
X115910262Y-56806518D01*
X115850144Y-56621492D01*
X115815795Y-56561999D01*
X115799322Y-56494101D01*
X115815796Y-56438000D01*
X115850144Y-56378508D01*
X115910262Y-56193482D01*
X115930598Y-56000000D01*
X115910262Y-55806518D01*
X115850144Y-55621492D01*
X115815795Y-55561999D01*
X115799322Y-55494101D01*
X115815796Y-55438000D01*
X115850144Y-55378508D01*
X115910262Y-55193482D01*
X115930598Y-55000000D01*
X115910262Y-54806518D01*
X115850144Y-54621492D01*
X115815795Y-54561999D01*
X115799322Y-54494101D01*
X115815796Y-54438000D01*
X115850144Y-54378508D01*
X115910262Y-54193482D01*
X115930598Y-54000000D01*
X115910262Y-53806518D01*
X115850144Y-53621492D01*
X115815795Y-53561999D01*
X115799322Y-53494101D01*
X115815796Y-53438000D01*
X115850144Y-53378508D01*
X115910262Y-53193482D01*
X115930598Y-53000000D01*
X115910262Y-52806518D01*
X115880150Y-52713844D01*
X115878156Y-52644006D01*
X115881895Y-52632210D01*
X115919091Y-52532483D01*
X115925500Y-52472873D01*
X115925499Y-51527128D01*
X115919091Y-51467517D01*
X115868796Y-51332669D01*
X115868795Y-51332668D01*
X115868793Y-51332664D01*
X115782547Y-51217455D01*
X115782544Y-51217452D01*
X115667335Y-51131206D01*
X115667328Y-51131202D01*
X115532482Y-51080908D01*
X115532483Y-51080908D01*
X115472883Y-51074501D01*
X115472881Y-51074500D01*
X115472873Y-51074500D01*
X115472864Y-51074500D01*
X114527129Y-51074500D01*
X114527123Y-51074501D01*
X114467516Y-51080908D01*
X114332671Y-51131202D01*
X114332664Y-51131206D01*
X114217455Y-51217452D01*
X114217452Y-51217455D01*
X114131206Y-51332664D01*
X114131202Y-51332671D01*
X114080908Y-51467517D01*
X114074501Y-51527116D01*
X114074501Y-51527123D01*
X114074500Y-51527135D01*
X114074500Y-52472870D01*
X114074501Y-52472876D01*
X114080908Y-52532483D01*
X114118099Y-52632195D01*
X114123083Y-52701887D01*
X114119848Y-52713845D01*
X114089740Y-52806511D01*
X114089738Y-52806516D01*
X114069402Y-53000000D01*
X85000000Y-53000000D01*
X85000000Y-49124000D01*
X85019685Y-49056961D01*
X85072489Y-49011206D01*
X85124000Y-49000000D01*
X117376000Y-49000000D01*
X117443039Y-49019685D01*
G37*
%TD.AperFunction*%
%TD*%
M02*
