M48
; DRILL file {KiCad 8.0.7} date 2025-01-01T23:53:16-0500
; FORMAT={-:-/ absolute / inch / decimal}
; #@! TF.CreationDate,2025-01-01T23:53:16-05:00
; #@! TF.GenerationSoftware,Kicad,Pcbnew,8.0.7
; #@! TF.FileFunction,Plated,1,2,PTH
FMAT,2
INCH
; #@! TA.AperFunction,Plated,PTH,ViaDrill
T1C0.0118
; #@! TA.AperFunction,Plated,PTH,ComponentDrill
T2C0.0197
%
G90
G05
T1
X3.4646Y-2.2835
X3.5453Y-2.1831
X3.7598Y-2.1654
X3.7992Y-2.3622
X3.878Y-2.2047
X3.9331Y-2.1654
X3.9567Y-2.3819
X3.9803Y-2.1654
X4.0354Y-2.3425
X4.1142Y-2.2244
X4.4449Y-2.378
T2
X4.5276Y-2.0472
X4.5276Y-2.0866
X4.5276Y-2.126
X4.5276Y-2.1654
X4.5276Y-2.2047
X4.5276Y-2.2441
X4.5276Y-2.2835
X4.5276Y-2.3228
X4.5276Y-2.3622
M30
